REM DIRINDEX 1\2,1\3,1\4
REM DIRNAME folder01,folder02,folder03,folder04
TITLE ""
FILE "069 069_TOEFL_3900.mp3" MP3
  TRACK 01 AUDIO
    TITLE "2:cjc151_2985"
    INDEX 01 00:00:00
  TRACK 02 AUDIO
    TITLE "0:"
    INDEX 01 00:01:21
  TRACK 03 AUDIO
    TITLE "3:cjc151_2986"
    INDEX 01 00:03:00
  TRACK 04 AUDIO
    TITLE "0:"
    INDEX 01 00:07:21
  TRACK 05 AUDIO
    TITLE "2:cjc151_2987"
    INDEX 01 00:09:00
  TRACK 06 AUDIO
    TITLE "0:"
    INDEX 01 00:09:65
  TRACK 07 AUDIO
    TITLE "3:cjc151_2988"
    INDEX 01 00:11:50
  TRACK 08 AUDIO
    TITLE "0:"
    INDEX 01 00:14:58
  TRACK 09 AUDIO
    TITLE "2:cjc151_2989"
    INDEX 01 00:16:59
  TRACK 10 AUDIO
    TITLE "0:"
    INDEX 01 00:17:65
  TRACK 11 AUDIO
    TITLE "3:cjc151_2990"
    INDEX 01 00:19:42
  TRACK 12 AUDIO
    TITLE "0:"
    INDEX 01 00:22:48
  TRACK 13 AUDIO
    TITLE "2:cjc151_2991"
    INDEX 01 00:24:27
  TRACK 14 AUDIO
    TITLE "0:"
    INDEX 01 00:25:15
  TRACK 15 AUDIO
    TITLE "3:cjc151_2992"
    INDEX 01 00:27:02
  TRACK 16 AUDIO
    TITLE "0:"
    INDEX 01 00:30:38
  TRACK 17 AUDIO
    TITLE "2:cjc151_2993"
    INDEX 01 00:32:17
  TRACK 18 AUDIO
    TITLE "0:"
    INDEX 01 00:33:28
  TRACK 19 AUDIO
    TITLE "3:cjc151_2994"
    INDEX 01 00:35:08
  TRACK 20 AUDIO
    TITLE "0:"
    INDEX 01 00:39:13
  TRACK 21 AUDIO
    TITLE "2:cjc151_2995"
    INDEX 01 00:40:64
  TRACK 22 AUDIO
    TITLE "0:"
    INDEX 01 00:41:55
  TRACK 23 AUDIO
    TITLE "3:cjc151_2996"
    INDEX 01 00:43:42
  TRACK 24 AUDIO
    TITLE "0:"
    INDEX 01 00:46:60
  TRACK 25 AUDIO
    TITLE "2:cjc151_2997"
    INDEX 01 00:48:34
  TRACK 26 AUDIO
    TITLE "0:"
    INDEX 01 00:49:27
  TRACK 27 AUDIO
    TITLE "3:cjc151_2998"
    INDEX 01 00:51:09
  TRACK 28 AUDIO
    TITLE "0:"
    INDEX 01 00:54:60
  TRACK 29 AUDIO
    TITLE "2:cjc151_2999"
    INDEX 01 00:56:37
  TRACK 30 AUDIO
    TITLE "0:"
    INDEX 01 00:57:37
  TRACK 31 AUDIO
    TITLE "3:cjc151_3000"
    INDEX 01 00:59:16
  TRACK 32 AUDIO
    TITLE "0:"
    INDEX 01 01:02:14
  TRACK 33 AUDIO
    TITLE "2:cjc151_3001"
    INDEX 01 01:03:67
  TRACK 34 AUDIO
    TITLE "0:"
    INDEX 01 01:04:60
  TRACK 35 AUDIO
    TITLE "3:cjc151_3002"
    INDEX 01 01:06:42
  TRACK 36 AUDIO
    TITLE "0:"
    INDEX 01 01:09:56
  TRACK 37 AUDIO
    TITLE "2:cjc151_3003"
    INDEX 01 01:11:33
  TRACK 38 AUDIO
    TITLE "0:"
    INDEX 01 01:12:36
  TRACK 39 AUDIO
    TITLE "3:cjc151_3004"
    INDEX 01 01:14:16
  TRACK 40 AUDIO
    TITLE "0:"
    INDEX 01 01:17:47
  TRACK 41 AUDIO
    TITLE "2:cjc151_3005"
    INDEX 01 01:19:27
  TRACK 42 AUDIO
    TITLE "0:"
    INDEX 01 01:20:32
  TRACK 43 AUDIO
    TITLE "3:cjc151_3006"
    INDEX 01 01:22:07
  TRACK 44 AUDIO
    TITLE "0:"
    INDEX 01 01:26:01
  TRACK 45 AUDIO
    TITLE "2:cjc151_3007"
    INDEX 01 01:27:57
  TRACK 46 AUDIO
    TITLE "0:"
    INDEX 01 01:28:57
  TRACK 47 AUDIO
    TITLE "3:cjc151_3008"
    INDEX 01 01:30:32
  TRACK 48 AUDIO
    TITLE "0:"
    INDEX 01 01:35:08
  TRACK 49 AUDIO
    TITLE "2:cjc151_3009"
    INDEX 01 01:37:03
  TRACK 50 AUDIO
    TITLE "0:"
    INDEX 01 01:38:22
  TRACK 51 AUDIO
    TITLE "3:cjc151_3010"
    INDEX 01 01:39:74
  TRACK 52 AUDIO
    TITLE "0:"
    INDEX 01 01:43:64
  TRACK 53 AUDIO
    TITLE "2:cjc151_3011"
    INDEX 01 01:45:44
  TRACK 54 AUDIO
    TITLE "0:"
    INDEX 01 01:46:51
  TRACK 55 AUDIO
    TITLE "3:cjc151_3012"
    INDEX 01 01:48:30
  TRACK 56 AUDIO
    TITLE "0:"
    INDEX 01 01:52:42
  TRACK 57 AUDIO
    TITLE "2:cjc151_3013"
    INDEX 01 01:54:17
  TRACK 58 AUDIO
    TITLE "0:"
    INDEX 01 01:55:34
  TRACK 59 AUDIO
    TITLE "3:cjc151_3014"
    INDEX 01 01:57:11
  TRACK 60 AUDIO
    TITLE "0:"
    INDEX 01 02:01:45
  TRACK 61 AUDIO
    TITLE "2:cjc151_3015"
    INDEX 01 02:03:22
  TRACK 62 AUDIO
    TITLE "0:"
    INDEX 01 02:04:13
  TRACK 63 AUDIO
    TITLE "3:cjc151_3016"
    INDEX 01 02:05:68
  TRACK 64 AUDIO
    TITLE "0:"
    INDEX 01 02:09:34
  TRACK 65 AUDIO
    TITLE "2:cjc151_3017"
    INDEX 01 02:11:14
  TRACK 66 AUDIO
    TITLE "0:"
    INDEX 01 02:12:23
  TRACK 67 AUDIO
    TITLE "3:cjc151_3018"
    INDEX 01 02:14:02
  TRACK 68 AUDIO
    TITLE "0:"
    INDEX 01 02:17:53
  TRACK 69 AUDIO
    TITLE "2:cjc151_3019"
    INDEX 01 02:19:33
  TRACK 70 AUDIO
    TITLE "0:"
    INDEX 01 02:20:32
  TRACK 71 AUDIO
    TITLE "3:cjc151_3020"
    INDEX 01 02:22:11
  TRACK 72 AUDIO
    TITLE "0:"
    INDEX 01 02:26:44
  TRACK 73 AUDIO
    TITLE "2:cjc151_3021"
    INDEX 01 02:28:22
  TRACK 74 AUDIO
    TITLE "0:"
    INDEX 01 02:29:35
  TRACK 75 AUDIO
    TITLE "3:cjc151_3022"
    INDEX 01 02:31:14
  TRACK 76 AUDIO
    TITLE "0:"
    INDEX 01 02:35:20
  TRACK 77 AUDIO
    TITLE "2:cjc151_3023"
    INDEX 01 02:36:72
  TRACK 78 AUDIO
    TITLE "0:"
    INDEX 01 02:38:06
  TRACK 79 AUDIO
    TITLE "3:cjc151_3024"
    INDEX 01 02:39:55
  TRACK 80 AUDIO
    TITLE "0:"
    INDEX 01 02:42:65
  TRACK 81 AUDIO
    TITLE "2:cjc151_3025"
    INDEX 01 02:44:42
  TRACK 82 AUDIO
    TITLE "0:"
    INDEX 01 02:45:50
  TRACK 83 AUDIO
    TITLE "3:cjc151_3026"
    INDEX 01 02:47:29
  TRACK 84 AUDIO
    TITLE "0:"
    INDEX 01 02:51:29
  TRACK 85 AUDIO
    TITLE "2:cjc151_3027"
    INDEX 01 02:53:08
  TRACK 86 AUDIO
    TITLE "0:"
    INDEX 01 02:54:07
  TRACK 87 AUDIO
    TITLE "3:cjc151_3028"
    INDEX 01 02:55:64
  TRACK 88 AUDIO
    TITLE "0:"
    INDEX 01 03:00:12
